<?xml version="1.0" encoding="UTF-8" standalone="no"?>
<!-- Created with Inkscape (http://www.inkscape.org/) -->

<svg
   width="320"
   height="320"
   viewBox="0 0 84.666664 84.666666"
   version="1.1"
   id="svg5"
   inkscape:version="1.2.2 (732a01da63, 2022-12-09)"
   sodipodi:docname="fullstack.svg"
   xmlns:inkscape="http://www.inkscape.org/namespaces/inkscape"
   xmlns:sodipodi="http://sodipodi.sourceforge.net/DTD/sodipodi-0.dtd"
   xmlns="http://www.w3.org/2000/svg"
   xmlns:svg="http://www.w3.org/2000/svg">
  <sodipodi:namedview
     id="namedview7"
     pagecolor="#ffffff"
     bordercolor="#000000"
     borderopacity="0.25"
     inkscape:showpageshadow="2"
     inkscape:pageopacity="0.0"
     inkscape:pagecheckerboard="0"
     inkscape:deskcolor="#d1d1d1"
     inkscape:document-units="mm"
     showgrid="false"
     inkscape:zoom="2.3786088"
     inkscape:cx="147.35504"
     inkscape:cy="158.07559"
     inkscape:window-width="1920"
     inkscape:window-height="1174"
     inkscape:window-x="-11"
     inkscape:window-y="-11"
     inkscape:window-maximized="1"
     inkscape:current-layer="layer1" />
  <defs
     id="defs2" />
  <g
     inkscape:label="Icon"
     inkscape:groupmode="layer"
     id="layer1">
    <path
       style="fill:#ddd6fe;fill-opacity:1;stroke:#1e293b;stroke-width:3;stroke-linecap:round;stroke-linejoin:round;stroke-dasharray:none"
       id="path234"
       sodipodi:type="arc"
       sodipodi:cx="42.303898"
       sodipodi:cy="42.380402"
       sodipodi:rx="40.356091"
       sodipodi:ry="40.3769"
       sodipodi:start="0"
       sodipodi:end="6.2724684"
       sodipodi:arc-type="arc"
       d="M 82.659988,42.380402 A 40.356091,40.3769 0 0 1 42.412021,82.757156 40.356091,40.3769 0 0 1 1.9483867,42.596758 40.356091,40.3769 0 0 1 41.979532,2.0048061 40.356091,40.3769 0 0 1 82.657671,41.947694"
       sodipodi:open="true"
       inkscape:label="Container" />
    <path
       style="fill:#f0eeee;fill-opacity:1;stroke:#1e293b;stroke-width:3;stroke-linecap:round;stroke-linejoin:round"
       d="m 16.351469,54.28243 c 12.59558,-0.285808 49.833052,0.667407 49.833052,0.667407 C 75.911921,52.574424 80.827932,38.70922 65.405879,34.48269 73.76018,16.351469 45.383671,2.1134549 36.039974,20.355911 22.246897,13.681841 11.902089,24.360352 17.352579,36.262442 6.2291314,39.265773 6.4255179,52.232314 16.351469,54.28243 Z"
       id="path2685"
       sodipodi:nodetypes="cccccc" />
    <g
       inkscape:groupmode="layer"
       id="layer2-2"
       inkscape:label="computer"
       transform="matrix(-0.00443427,0.9999826,-0.99999096,-0.00443431,59.864974,4.5617653)">
      <rect
         style="fill:#add4ff;fill-opacity:1;stroke:#1e293b;stroke-width:3;stroke-linecap:round;stroke-linejoin:round"
         id="rect232-5"
         width="44.007679"
         height="27.728294"
         x="25.829258"
         y="3.9735339"
         ry="2.0739236" />
      <path
         style="fill:#f0eeee;fill-opacity:1;stroke:#1e293b;stroke-width:3.00001;stroke-linecap:round;stroke-linejoin:round"
         id="path2793"
         transform="rotate(-90.254069)"
         sodipodi:type="arc"
         sodipodi:cx="-18.207644"
         sodipodi:cy="60.788956"
         sodipodi:rx="4.4999967"
         sodipodi:ry="4.5000339"
         sodipodi:start="0"
         sodipodi:end="6.2724684"
         sodipodi:open="true"
         sodipodi:arc-type="arc"
         d="m -13.707647,60.788956 a 4.4999967,4.5000339 0 0 1 -4.48794,4.500017 4.4999967,4.5000339 0 0 1 -4.511989,-4.475904 4.4999967,4.5000339 0 0 1 4.463763,-4.524002 4.4999967,4.5000339 0 0 1 4.535908,4.451663" />
      <path
         style="fill:#f0eeee;fill-opacity:1;stroke:#1e293b;stroke-width:3.00001;stroke-linecap:round;stroke-linejoin:round"
         d="m 54.769603,17.909341 4.46299,-0.01979"
         id="path2903"
         sodipodi:nodetypes="cc" />
      <path
         style="fill:#f0eeee;fill-opacity:1;stroke:#1e293b;stroke-width:3.00001;stroke-linecap:round;stroke-linejoin:round"
         d="M 45.057255,26.665413 44.979782,9.1944316"
         id="path2905" />
      <path
         style="fill:#f0eeee;fill-opacity:1;stroke:#1e293b;stroke-width:3.00001;stroke-linecap:round;stroke-linejoin:round"
         d="M 39.057269,26.692018 38.979796,9.2210364"
         id="path2905-1" />
      <path
         style="fill:#f0eeee;fill-opacity:1;stroke:#1e293b;stroke-width:3.00001;stroke-linecap:round;stroke-linejoin:round"
         d="M 33.057282,26.718618 32.979809,9.2476423"
         id="path2905-3" />
    </g>
  </g>
</svg>
