<?xml version="1.0" encoding="UTF-8" standalone="no"?>
<!-- Created with Inkscape (http://www.inkscape.org/) -->

<svg
   width="320"
   height="320"
   viewBox="0 0 84.666664 84.666666"
   version="1.1"
   id="svg5"
   inkscape:version="1.2.2 (732a01da63, 2022-12-09)"
   sodipodi:docname="management.svg"
   xmlns:inkscape="http://www.inkscape.org/namespaces/inkscape"
   xmlns:sodipodi="http://sodipodi.sourceforge.net/DTD/sodipodi-0.dtd"
   xmlns="http://www.w3.org/2000/svg"
   xmlns:svg="http://www.w3.org/2000/svg">
  <sodipodi:namedview
     id="namedview7"
     pagecolor="#ffffff"
     bordercolor="#000000"
     borderopacity="0.25"
     inkscape:showpageshadow="2"
     inkscape:pageopacity="0.0"
     inkscape:pagecheckerboard="0"
     inkscape:deskcolor="#d1d1d1"
     inkscape:document-units="mm"
     showgrid="false"
     inkscape:zoom="3.3638608"
     inkscape:cx="109.24947"
     inkscape:cy="154.88156"
     inkscape:window-width="1920"
     inkscape:window-height="1174"
     inkscape:window-x="-11"
     inkscape:window-y="-11"
     inkscape:window-maximized="1"
     inkscape:current-layer="layer2" />
  <defs
     id="defs2" />
  <g
     inkscape:label="Icon"
     inkscape:groupmode="layer"
     id="layer1">
    <path
       style="fill:#ddd6fe;fill-opacity:1;stroke:#1e293b;stroke-width:3;stroke-linecap:round;stroke-linejoin:round;stroke-dasharray:none"
       id="path234"
       sodipodi:type="arc"
       sodipodi:cx="42.303898"
       sodipodi:cy="42.380402"
       sodipodi:rx="40.356091"
       sodipodi:ry="40.3769"
       sodipodi:start="0"
       sodipodi:end="6.2724684"
       sodipodi:arc-type="arc"
       d="M 82.659988,42.380402 A 40.356091,40.3769 0 0 1 42.412021,82.757156 40.356091,40.3769 0 0 1 1.9483867,42.596758 40.356091,40.3769 0 0 1 41.979532,2.0048061 40.356091,40.3769 0 0 1 82.657671,41.947694"
       sodipodi:open="true"
       inkscape:label="Container" />
    <g
       inkscape:groupmode="layer"
       id="layer4"
       inkscape:label="sliders"
       transform="translate(-0.39327331,0.39327331)">
      <g
         inkscape:groupmode="layer"
         id="layer2"
         inkscape:label="slider 1"
         transform="translate(4.2803335,-0.019987)">
        <path
           style="fill:#a1c3db;stroke:#1e293b;stroke-width:3;stroke-linecap:round;stroke-linejoin:round"
           d="m 22.469367,18.019987 0.02781,45.828609"
           id="path335" />
        <g
           inkscape:groupmode="layer"
           id="layer3"
           inkscape:label="slider bubble"
           transform="translate(-0.31461864,7.3935382)">
          <path
             style="fill:#a1c3db;stroke:#ddd6fe;stroke-width:3;stroke-linecap:round;stroke-linejoin:round;stroke-opacity:1"
             id="path945"
             sodipodi:type="arc"
             sodipodi:cx="22.534559"
             sodipodi:cy="40.585808"
             sodipodi:rx="6"
             sodipodi:ry="6"
             sodipodi:start="0"
             sodipodi:end="6.2724684"
             sodipodi:open="true"
             sodipodi:arc-type="arc"
             d="m 28.534559,40.585808 a 6,6 0 0 1 -5.983924,5.999978 6,6 0 0 1 -6.01599,-5.967828 6,6 0 0 1 5.951689,-6.031956 6,6 0 0 1 6.047881,5.935506" />
          <path
             style="fill:#1e293b;fill-opacity:1;stroke:#1e293b;stroke-width:3;stroke-linecap:round;stroke-linejoin:round"
             id="path943"
             sodipodi:type="arc"
             sodipodi:cx="22.770523"
             sodipodi:cy="40.507149"
             sodipodi:rx="4.5"
             sodipodi:ry="4.5"
             sodipodi:start="0"
             sodipodi:end="6.2724684"
             sodipodi:open="true"
             sodipodi:arc-type="arc"
             d="m 27.270523,40.507149 a 4.5,4.5 0 0 1 -4.487943,4.499984 4.5,4.5 0 0 1 -4.511992,-4.475871 4.5,4.5 0 0 1 4.463766,-4.523968 4.5,4.5 0 0 1 4.535911,4.45163" />
        </g>
      </g>
      <g
         inkscape:groupmode="layer"
         id="layer2-3"
         inkscape:label="slider 2"
         transform="translate(20.28006,-0.019987)">
        <path
           style="fill:#a1c3db;stroke:#1e293b;stroke-width:3;stroke-linecap:round;stroke-linejoin:round"
           d="m 22.469367,18.019987 0.02781,45.828609"
           id="path335-7" />
        <g
           inkscape:groupmode="layer"
           id="layer3-4"
           inkscape:label="slider bubble"
           transform="translate(-0.31461864,-11.006819)">
          <path
             style="fill:#a1c3db;stroke:#ddd6fe;stroke-width:3;stroke-linecap:round;stroke-linejoin:round;stroke-opacity:1"
             id="path945-0"
             sodipodi:type="arc"
             sodipodi:cx="22.534559"
             sodipodi:cy="40.585808"
             sodipodi:rx="6"
             sodipodi:ry="6"
             sodipodi:start="0"
             sodipodi:end="6.2724684"
             sodipodi:open="true"
             sodipodi:arc-type="arc"
             d="m 28.534559,40.585808 a 6,6 0 0 1 -5.983924,5.999978 6,6 0 0 1 -6.01599,-5.967828 6,6 0 0 1 5.951689,-6.031956 6,6 0 0 1 6.047881,5.935506" />
          <path
             style="fill:#1e293b;fill-opacity:1;stroke:#1e293b;stroke-width:3;stroke-linecap:round;stroke-linejoin:round"
             id="path943-1"
             sodipodi:type="arc"
             sodipodi:cx="22.770523"
             sodipodi:cy="40.507149"
             sodipodi:rx="4.5"
             sodipodi:ry="4.5"
             sodipodi:start="0"
             sodipodi:end="6.2724684"
             sodipodi:open="true"
             sodipodi:arc-type="arc"
             d="m 27.270523,40.507149 a 4.5,4.5 0 0 1 -4.487943,4.499984 4.5,4.5 0 0 1 -4.511992,-4.475871 4.5,4.5 0 0 1 4.463766,-4.523968 4.5,4.5 0 0 1 4.535911,4.45163" />
        </g>
      </g>
      <g
         inkscape:groupmode="layer"
         id="layer2-9"
         inkscape:label="slider 3"
         transform="translate(36.280334,-0.019987)">
        <path
           style="fill:#a1c3db;stroke:#1e293b;stroke-width:3;stroke-linecap:round;stroke-linejoin:round"
           d="m 22.469367,18.019987 0.02781,45.828609"
           id="path335-2" />
        <g
           inkscape:groupmode="layer"
           id="layer3-3"
           inkscape:label="slider bubble"
           transform="translate(-0.31461864,0.693181)">
          <path
             style="fill:#a1c3db;stroke:#ddd6fe;stroke-width:3;stroke-linecap:round;stroke-linejoin:round;stroke-opacity:1"
             id="path945-9"
             sodipodi:type="arc"
             sodipodi:cx="22.534559"
             sodipodi:cy="40.585808"
             sodipodi:rx="6"
             sodipodi:ry="6"
             sodipodi:start="0"
             sodipodi:end="6.2724684"
             sodipodi:open="true"
             sodipodi:arc-type="arc"
             d="m 28.534559,40.585808 a 6,6 0 0 1 -5.983924,5.999978 6,6 0 0 1 -6.01599,-5.967828 6,6 0 0 1 5.951689,-6.031956 6,6 0 0 1 6.047881,5.935506" />
          <path
             style="fill:#1e293b;fill-opacity:1;stroke:#1e293b;stroke-width:3;stroke-linecap:round;stroke-linejoin:round"
             id="path943-2"
             sodipodi:type="arc"
             sodipodi:cx="22.770523"
             sodipodi:cy="40.507149"
             sodipodi:rx="4.5"
             sodipodi:ry="4.5"
             sodipodi:start="0"
             sodipodi:end="6.2724684"
             sodipodi:open="true"
             sodipodi:arc-type="arc"
             d="m 27.270523,40.507149 a 4.5,4.5 0 0 1 -4.487943,4.499984 4.5,4.5 0 0 1 -4.511992,-4.475871 4.5,4.5 0 0 1 4.463766,-4.523968 4.5,4.5 0 0 1 4.535911,4.45163" />
        </g>
      </g>
    </g>
  </g>
</svg>
