<svg id="eNYfGeild1a1" xmlns="http://www.w3.org/2000/svg" xmlns:xlink="http://www.w3.org/1999/xlink" viewBox="0 -1.44 600 3000" shape-rendering="geometricPrecision" text-rendering="geometricPrecision"><g transform="translate(285.048463 93.926988)"><path d="M249.358822,40.267106v.229145c-.031427.409883-.10652.815027-.223945,1.208222L207.257032,220.292106v.208314v0c-8.265632,31.038794-28.909353,30.143043-51.731455,29.163967-19.870091-.916582-40.717399-.520785-60.709642-.208314-31.841005.520785-45.359182.708268-55.660684-43.433479v0l-.610761-2.22896c-4.800359-2.864725-9.208984-6.367046-13.111002-10.415703C3.344299,170.81752,-7.975138,107.927509,5.970571,35.934173c0-12.373854,15.798351-22.206277,41.32816-28.101565C68.227474,2.999722,96.770371,0,128.122768,0s59.773141,2.999722,80.681525,7.832608c25.529809,5.895288,41.32816,15.748542,41.32816,28.101565.000686,1.471518-.226061,2.933891-.671837,4.332933ZM18.939063,34.184335l.223946,1.312379c-.172807.004041-.338657.070445-.46825.187483s0,.166651,0,.249976C18.6744,49.995372,67.637072,61.24433,128.122768,61.24433s109.326215-11.332284,109.326215-25.310157-49.044106-25.310157-109.326215-25.310157c-57.859424,0-105.213759,10.415703-109.081912,23.560319Zm2.03587,20.581428l28.01357,140.778634c5.903541,2.678463,12.224227,4.265349,18.668928,4.687066c12.927774.916582,33.103245-2.333117,46.214247-9.040829c32.557097-17.170961,54.618414-49.804981,58.836641-87.03361-5.813522-2.881812-9.506266-8.90959-9.507512-15.519396c0-18.998242,33.754723-18.935747,33.754723,0c.000365,7.755727-5.040759,14.565197-12.337372,16.665124-4.677054,41.394584-29.207724,77.681737-65.412501,96.761875-15.004361,7.665957-37.317496,11.373947-52.342216,10.290714-4.917263-.333952-9.784456-1.214044-14.515752-2.624757c7.268055,27.997408,19.768297,27.87242,42.203583,27.455792c20.236548-.354134,41.206008-.708268,61.401838.187482c17.813862.812425,33.937952,1.499861,39.679105-20.102305v0L233.58083,55.515694c-7.936513,3.831091-16.286988,6.690866-24.87833,8.520045-20.908384,4.853717-49.451281,7.832608-80.579732,7.832608s-59.7935-2.978891-80.681526-7.832608c-9.160085-1.895056-18.037588-5.011645-26.405233-9.269976Zm13.497818,130.63374L12.851812,83.992224c-4.53999,47.537266,4.886088,84.36719,21.071254,100.865663.171066.193032.354715.373984.549685.541616Z" transform="matrix(.441925 0.897052 0.897052-.441925-4.963977-17.167746)"/><path d="M-447.898871,3080.306784c103.62122-322.396181,159.062549-396.795298,216.997429-595.192948s-216.997429-456.893939-216.997429-667.691441s227.468438-448.295336,274.932309-659.092839s86.763065-371.995594,86.763065-508.393977-42.013194-357.639746,0-433.930458Q-7.354599,72.825371,47.366883,76.340454q34.346604,63.276259,31.214666,102.43473C56.897174,343.356536,190.359906,596.844446,190.359908,817.333596c0,142.598311,24.511388,409.195152,11.123515,592.940289s75.878246,606.543362,106.388754,755.341599s164.760745,232.357338,134.529149,443.15484-215.191134,192.539765-65.709967,502.536092" transform="translate(59.229188-5.640873)" fill="#4f46e5" stroke="rgba(0,0,0,0)" stroke-width="0.5"/></g><path d="" fill="none" stroke="#3f5787" stroke-width="6"/></svg>
