<?xml version="1.0" encoding="UTF-8" standalone="no"?>
<!-- Uploaded to: SVG Repo, www.svgrepo.com, Generator: SVG Repo Mixer Tools -->

<svg
   width="800px"
   height="800px"
   viewBox="0 0 24 24"
   fill="none"
   version="1.1"
   id="svg135"
   sodipodi:docname="favicon.svg"
   inkscape:version="1.2.2 (732a01da63, 2022-12-09)"
   xmlns:inkscape="http://www.inkscape.org/namespaces/inkscape"
   xmlns:sodipodi="http://sodipodi.sourceforge.net/DTD/sodipodi-0.dtd"
   xmlns="http://www.w3.org/2000/svg"
   xmlns:svg="http://www.w3.org/2000/svg">
  <defs
     id="defs139" />
  <sodipodi:namedview
     id="namedview137"
     pagecolor="#ffffff"
     bordercolor="#000000"
     borderopacity="0.25"
     inkscape:showpageshadow="2"
     inkscape:pageopacity="0.0"
     inkscape:pagecheckerboard="0"
     inkscape:deskcolor="#d1d1d1"
     showgrid="false"
     inkscape:zoom="0.834386"
     inkscape:cx="363.74052"
     inkscape:cy="449.43228"
     inkscape:window-width="1920"
     inkscape:window-height="1174"
     inkscape:window-x="-11"
     inkscape:window-y="-11"
     inkscape:window-maximized="1"
     inkscape:current-layer="svg135" />
  <path
     d="M 12,2 C 6.48,2 2,6.48 2,12 2,17.52 6.48,22 12,22 17.52,22 22,17.52 22,12 22,6.48 17.52,2 12,2 Z"
     fill="#292D32"
     id="path133"
     style="fill:#ffffff;fill-opacity:1;stroke:#fefefe;stroke-opacity:0"
     sodipodi:nodetypes="sssss" />
  <path
     d="M 12,2 C 6.48,2 2,6.48 2,12 2,17.52 6.48,22 12,22 17.52,22 22,17.52 22,12 22,6.48 17.52,2 12,2 Z M 8.53,13.47 c 0.29,0.29 0.29,0.77 0,1.06 -0.15,0.15 -0.34,0.22 -0.53,0.22 -0.19,0 -0.38,-0.07 -0.53,-0.22 l -2,-2 c -0.29,-0.29 -0.29,-0.77 0,-1.06 l 2,-2 c 0.29,-0.29 0.77,-0.29 1.06,0 0.29,0.29 0.29,0.77 0,1.06 L 7.06,12 Z M 13.69,9.9599997 11.69,14.63 c -0.12,0.28 -0.4,0.45 -0.69,0.45 -0.1,0 -0.2,-0.02 -0.29,-0.06 -0.38,-0.16 -0.56,-0.6 -0.39,-0.99 l 2,-4.67 c 0.16,-0.38 0.6,-0.56 0.98,-0.39 0.38,0.17 0.55,0.61 0.39,0.9899997 z M 18.53,12.53 l -2,2 c -0.15,0.15 -0.34,0.22 -0.53,0.22 -0.19,0 -0.38,-0.07 -0.53,-0.22 -0.29,-0.29 -0.29,-0.77 0,-1.06 L 16.94,12 15.47,10.53 c -0.29,-0.29 -0.29,-0.77 0,-1.06 0.29,-0.29 0.77,-0.29 1.06,0 l 2,2 c 0.29,0.29 0.29,0.77 0,1.06 z"
     fill="#292D32"
     id="path133-2"
     style="fill:#000000;fill-opacity:1;stroke:#d4d4d4;stroke-opacity:0" />
</svg>
